<?xml version="1.0" standalone="no"?>
<!DOCTYPE svg PUBLIC "-//W3C//DTD SVG 20010904//EN"
 "http://www.w3.org/TR/2001/REC-SVG-20010904/DTD/svg10.dtd">
<svg version="1.0" xmlns="http://www.w3.org/2000/svg"
 width="573.000000pt" height="263.000000pt" viewBox="0 0 573.000000 263.000000"
 preserveAspectRatio="xMidYMid meet">

<g transform="translate(0.000000,263.000000) scale(0.100000,-0.100000)"
fill="#000000" stroke="none">
<path d="M1807 2474 c-4 -4 -7 -22 -7 -40 0 -30 -3 -33 -35 -36 -46 -4 -46
-22 -1 -26 32 -3 35 -6 38 -40 4 -51 32 -51 36 1 3 35 5 37 38 37 24 0 34 5
34 15 0 10 -10 15 -34 15 -33 0 -35 2 -38 37 -3 35 -17 51 -31 37z"/>
<path d="M770 2462 c-8 -3 -143 -31 -300 -61 -216 -43 -285 -60 -285 -71 0 -9
96 -60 253 -136 139 -67 256 -124 259 -127 3 -3 -16 -140 -42 -304 l-46 -298
79 -400 78 -400 111 -3 111 -3 147 -215 c121 -178 150 -213 160 -202 7 7 77
107 156 222 l142 209 38 188 c21 104 43 197 48 207 6 11 103 154 216 318 l205
299 -2 220 c-3 196 -5 220 -19 220 -9 0 -136 -116 -283 -258 l-265 -257 -173
2 -173 3 -76 388 c-42 214 -79 391 -82 394 -3 2 -55 17 -115 32 -60 16 -113
30 -118 33 -5 3 -16 3 -24 0z m-38 -194 c-13 -84 -25 -154 -27 -156 -1 -2
-100 43 -218 100 -119 56 -214 105 -211 108 5 4 439 96 470 99 7 1 2 -51 -14
-151z m166 128 c52 -14 96 -26 98 -29 3 -3 36 -164 74 -358 38 -195 72 -364
75 -376 5 -21 2 -22 -61 -25 l-67 -3 -59 -265 -59 -265 36 -180 c19 -99 35
-184 35 -188 0 -4 -39 -6 -87 -5 l-87 3 -73 370 c-40 204 -72 385 -73 403 0
42 146 942 153 942 1 0 44 -11 95 -24z m971 -982 c-105 -154 -195 -282 -199
-287 -3 -4 -30 97 -59 225 l-52 233 248 241 248 241 3 -187 2 -187 -191 -279z
m-464 -106 c-56 -145 -105 -272 -109 -283 -6 -17 -9 -18 -16 -5 -11 21 -210
534 -210 543 0 4 98 7 219 7 l219 0 -103 -262z m192 -426 l-37 -187 -122 -182
c-68 -101 -127 -183 -131 -183 -4 0 -7 138 -5 308 l3 307 102 260 c56 143 107
274 114 290 11 28 16 12 62 -198 l51 -228 -37 -187z m-439 337 l112 -291 -2
-305 -3 -304 -127 188 -127 188 -37 187 -37 187 49 221 c27 121 51 220 54 220
3 0 56 -131 118 -291z"/>
<path d="M1548 2193 c-3 -36 -5 -38 -40 -41 -24 -2 -38 -8 -38 -17 0 -9 14
-15 38 -17 35 -3 37 -5 40 -40 2 -24 8 -38 17 -38 9 0 15 14 17 38 3 35 5 37
41 40 23 2 37 8 37 17 0 9 -14 15 -37 17 -36 3 -38 5 -41 41 -2 23 -8 37 -17
37 -9 0 -15 -14 -17 -37z"/>
<path d="M3432 984 c-41 -28 -19 -94 32 -94 28 0 56 29 56 58 0 20 -33 52 -55
52 -6 0 -21 -7 -33 -16z"/>
<path d="M1810 725 l0 -245 45 0 45 0 0 245 0 245 -45 0 -45 0 0 -245z"/>
<path d="M3630 726 l0 -246 45 0 45 0 2 168 3 167 104 -167 104 -168 49 0 48
0 0 245 0 245 -45 0 -45 0 -2 -162 -3 -162 -100 160 -100 159 -52 3 -53 3 0
-245z"/>
<path d="M3264 873 c-9 -25 -12 -26 -86 -27 -74 -1 -79 -3 -110 -34 -28 -28
-33 -39 -33 -82 0 -40 5 -54 27 -76 l27 -27 -30 -28 c-30 -28 -31 -47 -1 -81
13 -16 13 -18 -4 -24 -79 -29 -71 -123 14 -155 41 -16 173 -13 215 4 116 49
85 207 -41 207 -82 0 -122 10 -122 31 0 11 3 19 8 19 111 7 153 24 177 70 19
37 19 67 0 104 -14 26 -13 30 10 58 36 42 34 50 -16 61 -21 5 -27 2 -35 -20z
m-52 -100 c22 -20 24 -66 2 -87 -35 -35 -94 -9 -94 41 0 54 54 81 92 46z m40
-309 c18 -12 7 -51 -17 -62 -58 -27 -145 -5 -145 37 0 34 21 43 89 36 35 -3
68 -8 73 -11z"/>
<path d="M2020 666 l0 -186 45 0 45 0 0 115 c0 126 10 162 49 172 70 19 81 -3
81 -159 l0 -128 45 0 45 0 0 115 c0 64 5 125 11 139 15 33 58 48 90 32 23 -11
24 -16 27 -149 l3 -137 44 0 45 0 0 145 c0 193 -16 225 -110 225 -46 0 -94
-21 -104 -46 -5 -13 -11 -11 -35 15 -25 27 -36 31 -79 31 -39 0 -57 -6 -81
-25 l-30 -26 -3 23 c-2 19 -10 24 -45 26 l-43 3 0 -185z"/>
<path d="M2690 827 c-51 -27 -58 -42 -32 -75 l18 -24 39 26 c21 15 52 26 70
26 60 0 76 -58 20 -72 -17 -4 -50 -13 -74 -19 -94 -23 -132 -111 -76 -177 42
-51 149 -51 176 -1 10 20 11 20 34 -5 18 -20 34 -26 64 -26 22 0 42 4 46 10
10 16 -6 58 -25 63 -16 4 -19 18 -22 121 -3 111 -4 117 -30 143 -24 23 -38 28
-95 31 -57 3 -75 0 -113 -21z m125 -264 c-29 -25 -47 -28 -76 -13 -20 11 -25
45 -10 68 4 7 30 19 57 26 l49 12 3 -35 c3 -29 -2 -40 -23 -58z"/>
<path d="M3420 665 l0 -185 45 0 45 0 0 185 0 185 -45 0 -45 0 0 -185z"/>
<path d="M4225 836 c-122 -54 -129 -278 -10 -340 78 -40 192 -20 232 40 13 20
12 24 -17 44 l-30 22 -18 -22 c-10 -13 -33 -23 -58 -27 -33 -4 -45 -1 -66 18
-15 13 -29 34 -33 47 -6 22 -6 22 114 22 135 0 139 2 125 77 -16 92 -64 133
-154 133 -30 -1 -68 -7 -85 -14z m121 -64 c13 -8 34 -46 34 -61 0 -7 -29 -11
-75 -11 -68 0 -75 2 -75 20 0 44 77 79 116 52z"/>
<path d="M4510 844 c0 -3 21 -44 47 -91 35 -65 44 -90 36 -102 -5 -9 -29 -51
-52 -93 l-42 -78 48 0 49 0 32 65 c17 36 35 65 40 65 4 0 22 -29 40 -65 l32
-65 49 0 49 0 -49 92 c-27 51 -49 95 -49 99 0 4 20 43 45 88 25 45 45 83 45
86 0 3 -20 5 -44 5 -44 0 -45 -1 -78 -60 -18 -33 -35 -60 -38 -60 -3 0 -20 27
-38 60 -33 59 -34 60 -78 60 -24 0 -44 -3 -44 -6z"/>
<path d="M4894 835 c-3 -8 -4 -76 -2 -152 4 -161 14 -186 81 -204 50 -13 111
2 130 31 16 27 27 25 27 -5 0 -23 4 -25 45 -25 l45 0 -2 183 -3 182 -45 0 -45
0 -5 -128 c-5 -120 -7 -130 -29 -148 -28 -23 -60 -24 -87 -5 -17 13 -19 29
-22 150 l-4 136 -39 0 c-26 0 -42 -5 -45 -15z"/>
<path d="M5353 830 c-54 -32 -68 -83 -38 -140 14 -27 39 -40 138 -70 33 -10
38 -15 35 -38 -3 -24 -8 -27 -43 -30 -30 -2 -50 3 -77 21 l-36 25 -22 -30
c-24 -33 -18 -48 29 -72 109 -56 241 -4 241 93 0 67 -29 90 -148 121 -39 10
-43 14 -40 38 2 22 9 28 36 30 18 2 47 -4 64 -13 31 -15 33 -15 56 9 29 28 23
42 -24 62 -49 21 -133 18 -171 -6z"/>
<path d="M422 333 c5 -25 61 -25 66 0 3 14 -4 17 -33 17 -29 0 -36 -3 -33 -17z"/>
<path d="M534 339 c-14 -24 29 -29 236 -26 195 2 215 4 218 20 3 16 -13 17
-222 17 -154 0 -227 -3 -232 -11z"/>
<path d="M1582 333 c3 -17 22 -18 228 -18 206 0 225 1 228 18 3 16 -13 17
-228 17 -215 0 -231 -1 -228 -17z"/>
<path d="M2084 339 c-7 -13 13 -29 37 -29 19 0 42 24 32 33 -11 11 -61 8 -69
-4z"/>
</g>
</svg>
